HIERARCHY
ROOT Hips
{
	OFFSET 0.000000 0.000000 0.000000 
	CHANNELS 6 Xposition Yposition Zposition Zrotation Yrotation Xrotation
	JOINT LHipJoint
	{
		OFFSET 0.000000 0.000000 0.000000 
		CHANNELS 3 Zrotation Yrotation Xrotation
		JOINT LeftUpLeg
		{
			OFFSET 1.656740 -1.802820 0.624770 
			CHANNELS 3 Zrotation Yrotation Xrotation
			JOINT LeftLeg
			{
				OFFSET 2.597200 -7.135760 0.000000 
				CHANNELS 3 Zrotation Yrotation Xrotation
				JOINT LeftFoot
				{
					OFFSET 2.492360 -6.847700 0.000000 
					CHANNELS 3 Zrotation Yrotation Xrotation
					JOINT LeftToeBase
					{
						OFFSET 0.197040 -0.541360 2.145810 
						CHANNELS 3 Zrotation Yrotation Xrotation
						End Site
						{
							OFFSET 0.000000 -0.000000 1.112490 
						}
					}
				}
			}
		}
	}
	JOINT RHipJoint
	{
		OFFSET 0.000000 0.000000 0.000000 
		CHANNELS 3 Zrotation Yrotation Xrotation
		JOINT RightUpLeg
		{
			OFFSET -1.610700 -1.802820 0.624760 
			CHANNELS 3 Zrotation Yrotation Xrotation
			JOINT RightLeg
			{
				OFFSET -2.595020 -7.129770 0.000000 
				CHANNELS 3 Zrotation Yrotation Xrotation
				JOINT RightFoot
				{
					OFFSET -2.467800 -6.780240 0.000000 
					CHANNELS 3 Zrotation Yrotation Xrotation
					JOINT RightToeBase
					{
						OFFSET -0.230240 -0.632580 2.133680 
						CHANNELS 3 Zrotation Yrotation Xrotation
						End Site
						{
							OFFSET -0.000000 -0.000000 1.115690 
						}
					}
				}
			}
		}
	}
	JOINT LowerBack
	{
		OFFSET 0.000000 0.000000 0.000000 
		CHANNELS 3 Zrotation Yrotation Xrotation
		JOINT Spine
		{
			OFFSET 0.019610 2.054500 -0.141120 
			CHANNELS 3 Zrotation Yrotation Xrotation
			JOINT Spine1
			{
				OFFSET 0.010210 2.064360 -0.059210 
				CHANNELS 3 Zrotation Yrotation Xrotation
				JOINT Neck
				{
					OFFSET 0.000000 0.000000 0.000000 
					CHANNELS 3 Zrotation Yrotation Xrotation
					JOINT Neck1
					{
						OFFSET 0.007130 1.567110 0.149680 
						CHANNELS 3 Zrotation Yrotation Xrotation
						JOINT Head
						{
							OFFSET 0.034290 1.560410 -0.100060 
							CHANNELS 3 Zrotation Yrotation Xrotation
							End Site
							{
								OFFSET 0.013050 1.625600 -0.052650 
							}
						}
					}
				}
				JOINT LeftShoulder
				{
					OFFSET 0.000000 0.000000 0.000000 
					CHANNELS 3 Zrotation Yrotation Xrotation
					JOINT LeftArm
					{
						OFFSET 3.542050 0.904360 -0.173640 
						CHANNELS 3 Zrotation Yrotation Xrotation
						JOINT LeftForeArm
						{
							OFFSET 4.865130 -0.000000 -0.000000 
							CHANNELS 3 Zrotation Yrotation Xrotation
							JOINT LeftHand
							{
								OFFSET 3.355540 -0.000000 0.000000 
								CHANNELS 3 Zrotation Yrotation Xrotation
								JOINT LeftFingerBase
								{
									OFFSET 0.000000 0.000000 0.000000 
									CHANNELS 3 Zrotation Yrotation Xrotation
									JOINT LeftHandIndex1
									{
										OFFSET 0.661170 -0.000000 0.000000 
										CHANNELS 3 Zrotation Yrotation Xrotation
										End Site
										{
											OFFSET 0.533060 -0.000000 0.000000 
										}
									}
								}
								JOINT LThumb
								{
									OFFSET 0.000000 0.000000 0.000000 
									CHANNELS 3 Zrotation Yrotation Xrotation
									End Site
									{
										OFFSET 0.541200 -0.000000 0.541200 
									}
								}
							}
						}
					}
				}
				JOINT RightShoulder
				{
					OFFSET 0.000000 0.000000 0.000000 
					CHANNELS 3 Zrotation Yrotation Xrotation
					JOINT RightArm
					{
						OFFSET -3.498020 0.759940 -0.326160 
						CHANNELS 3 Zrotation Yrotation Xrotation
						JOINT RightForeArm
						{
							OFFSET -5.026490 -0.000000 0.000000 
							CHANNELS 3 Zrotation Yrotation Xrotation
							JOINT RightHand
							{
								OFFSET -3.364310 -0.000000 0.000000 
								CHANNELS 3 Zrotation Yrotation Xrotation
								JOINT RightFingerBase
								{
									OFFSET 0.000000 0.000000 0.000000 
									CHANNELS 3 Zrotation Yrotation Xrotation
									JOINT RightHandIndex1
									{
										OFFSET -0.730410 -0.000000 0.000000 
										CHANNELS 3 Zrotation Yrotation Xrotation
										End Site
										{
											OFFSET -0.588870 -0.000000 0.000000 
										}
									}
								}
								JOINT RThumb
								{
									OFFSET 0.000000 0.000000 0.000000 
									CHANNELS 3 Zrotation Yrotation Xrotation
									End Site
									{
										OFFSET -0.597860 -0.000000 0.597860 
									}
								}
							}
						}
					}
				}
			}
		}
	}
}
MOTION
Frames: 10
Frame Time: 0.008333
9.287200 16.950001 -34.276199 0.000000 0.000000 0.000000 0.000000 0.000000 0.000000 -21.000000 0.000000 0.000000 0.000000 0.000000 0.000000 0.000000 0.000000 0.000000 0.000000 0.000000 0.000000 0.000000 0.000000 0.000000 21.000000 0.000000 0.000000 0.000000 0.000000 0.000000 0.000000 0.000000 0.000000 0.000000 0.000000 0.000000 0.000000 0.000000 0.000000 0.000000 0.000000 0.000000 0.000000 0.000000 0.000000 0.000000 0.000000 -16.000000 0.000000 0.000000 21.000000 0.000000 0.000000 11.000000 0.000000 0.000000 0.000000 -8.000000 0.000000 0.000000 0.000000 0.000000 0.000000 0.000000 0.000000 0.000000 0.000000 0.000000 0.000000 0.000000 0.000000 0.000000 0.000000 0.000000 0.000000 0.000000 0.000000 0.000000 8.000000 0.000000 0.000000 0.000000 0.000000 0.000000 0.000000 0.000000 0.000000 0.000000 0.000000 0.000000 0.000000 0.000000 0.000000 0.000000 0.000000 0.000000 
9.287200 16.950001 -34.276199 1.161800 3.393900 8.209400 0.000000 0.000000 0.000000 -24.781099 -1.363800 14.554400 1.641800 8.076200 22.945801 1.565000 16.945400 23.763800 0.000000 0.000000 0.000000 0.000000 0.000000 0.000000 17.740299 18.680201 -36.105400 -6.521500 -14.915400 47.040600 -1.107200 -7.063500 -23.609900 -1.183500 6.904200 -19.431900 -2.185400 -4.343300 6.782900 1.547000 -5.894000 0.468600 3.340900 -2.897600 -2.919800 -2.788700 3.234300 -15.460700 -0.069800 4.711100 -4.943700 0.699300 2.382400 0.952500 0.000000 -0.000000 0.000000 -72.111198 -6.853900 60.495399 128.034698 -53.757999 -92.248497 -0.000000 0.000000 -33.802601 32.913898 3.590000 2.320900 -7.125000 0.000000 -0.000000 5.180200 34.218899 -1.375100 0.000000 -0.000000 0.000000 79.026299 -42.809399 40.438000 -73.916603 58.999699 -46.118099 0.000000 -0.000000 -13.428700 -48.303501 34.506901 -32.452702 7.125000 -0.000000 -0.000000 -8.062000 15.572000 -10.014100 
9.273300 17.016600 -33.905899 1.840300 3.362800 7.902500 0.000000 0.000000 0.000000 -25.371201 -1.286800 14.485700 1.848700 8.543600 24.377899 1.429500 18.676701 23.467100 0.000000 0.000000 0.000000 0.000000 0.000000 0.000000 17.371201 18.217800 -34.774799 -5.722500 -14.153900 43.857498 -1.253400 -6.354900 -24.319901 -1.337400 7.322400 -20.674101 -2.794800 -4.354800 6.806600 1.376900 -5.960900 0.545500 3.504500 -2.927800 -2.805000 -3.063600 3.325700 -15.690900 0.103700 4.886700 -4.591200 0.822400 2.473900 1.095000 -0.000000 0.000000 0.000000 -71.964699 -5.922300 61.423901 127.006897 -54.133598 -91.417503 -0.000000 0.000000 -34.375702 32.532700 2.716300 1.731400 -7.125000 0.000000 -0.000000 4.832800 33.173100 -1.405000 -0.000000 0.000000 0.000000 79.565598 -42.273499 40.058601 -74.457703 59.067299 -46.582100 0.000000 -0.000000 -13.194600 -47.847698 34.045300 -31.735201 7.125000 -0.000000 -0.000000 -7.982000 14.834700 -9.841300 
9.268400 17.025801 -33.555599 3.029000 3.486000 7.798900 0.000000 0.000000 0.000000 -26.391800 -0.645700 13.925500 2.278200 9.422900 27.127501 1.422100 17.712601 23.103500 0.000000 0.000000 0.000000 0.000000 0.000000 0.000000 16.281099 17.567699 -34.416801 -5.284000 -13.696600 42.035599 -1.453800 -5.248000 -25.199600 -1.328200 7.298300 -20.602200 -3.800500 -4.454200 6.567000 1.161800 -6.164300 0.737400 3.817600 -3.033700 -2.375100 -3.511600 3.345600 -16.295700 0.066300 5.014500 -4.130000 0.919000 2.534900 1.339900 -0.000000 0.000000 0.000000 -72.210800 -5.002300 62.101002 125.855202 -54.536301 -90.481796 -0.000000 0.000000 -34.166599 32.711700 1.784600 1.145800 -7.125000 0.000000 -0.000000 4.936400 32.075199 -1.566500 -0.000000 0.000000 0.000000 79.821297 -41.155102 39.756199 -74.802902 59.109100 -46.878300 0.000000 -0.000000 -12.658200 -47.429501 34.016102 -31.341400 7.125000 -0.000000 -0.000000 -7.777400 14.594500 -9.561800 
9.249300 17.016300 -33.220600 3.809500 3.308000 7.676400 0.000000 0.000000 0.000000 -26.998100 -0.120900 12.951000 2.827400 10.410300 30.315901 1.229300 16.515900 21.472799 0.000000 0.000000 0.000000 0.000000 0.000000 0.000000 15.787100 17.272301 -33.726398 -4.819600 -13.177700 40.037300 -1.447400 -4.802400 -24.901899 -1.314400 7.261700 -20.492901 -4.358200 -4.225900 6.341800 0.692200 -5.890900 1.240500 3.576100 -2.919500 -1.747600 -2.839400 3.222800 -17.593700 -0.472600 4.783100 -3.872500 0.656000 2.387900 1.683600 -0.000000 -0.000000 0.000000 -71.759499 -4.802000 62.996601 124.658096 -54.935200 -89.504303 -0.000000 0.000000 -33.849201 32.360298 1.981800 1.255300 -7.125000 0.000000 -0.000000 4.662200 32.302399 -1.453400 -0.000000 -0.000000 0.000000 81.417900 -39.345100 38.605701 -75.038101 59.137001 -47.080101 0.000000 -0.000000 -12.166300 -47.368401 34.005501 -31.280001 7.125000 -0.000000 -0.000000 -7.749600 14.552700 -9.523000 
9.246800 17.017700 -32.897400 3.177800 3.269500 7.995700 0.000000 0.000000 0.000000 -26.198000 -0.374600 11.129900 3.569300 11.564100 34.206902 0.751300 13.987700 17.104900 0.000000 0.000000 0.000000 0.000000 0.000000 0.000000 16.761101 17.033701 -33.585400 -4.488200 -12.783200 38.562099 -1.381600 -4.599000 -24.283800 -1.355400 7.369600 -20.815001 -3.408100 -4.164900 6.161800 0.834300 -5.742400 0.988700 3.188000 -2.839900 -2.000400 -2.333400 3.232500 -17.300100 -1.136300 4.705700 -3.893400 0.344700 2.323600 1.654100 0.000000 -0.000000 0.000000 -71.845703 -3.379100 63.668999 123.588501 -55.275299 -88.627098 -0.000000 0.000000 -33.158501 31.659201 2.433500 1.499800 -7.125000 0.000000 -0.000000 4.112100 32.819000 -1.229800 0.000000 -0.000000 0.000000 81.929398 -38.423500 38.395699 -75.804802 59.224701 -47.738602 0.000000 -0.000000 -12.100200 -47.301800 33.901001 -31.152000 7.125000 -0.000000 -0.000000 -7.749100 14.404800 -9.508200 
9.219500 17.016100 -32.563301 2.385800 2.976100 7.612800 0.000000 0.000000 0.000000 -25.131399 -0.234600 9.797800 4.498400 12.795700 38.608299 0.792000 12.133000 16.853001 0.000000 0.000000 0.000000 0.000000 0.000000 0.000000 18.257000 16.928400 -32.453400 -4.265700 -12.505900 37.545898 -1.329700 -4.749700 -23.959200 -1.325700 7.291700 -20.582500 -2.762200 -3.898700 6.504400 0.971800 -5.350500 1.010100 2.974900 -2.643200 -2.245400 -1.265200 3.195400 -17.446699 -2.089600 4.489800 -3.440100 -0.147600 2.166500 1.886500 0.000000 -0.000000 0.000000 -71.811798 -2.068500 64.401802 122.314102 -55.661098 -87.577103 -0.000000 0.000000 -32.475899 31.342501 1.704300 1.037700 -7.125000 0.000000 -0.000000 3.831800 31.960100 -1.225100 0.000000 -0.000000 0.000000 82.799896 -37.281601 37.895500 -76.510399 59.301102 -48.345001 0.000000 -0.000000 -11.932900 -46.824001 34.453400 -31.087999 7.125000 -0.000000 -0.000000 -7.325700 14.778200 -9.015000 
9.210400 16.998301 -32.235298 2.613000 2.664600 7.719400 0.000000 0.000000 0.000000 -25.205400 -0.335400 7.747700 5.601000 14.030200 43.358601 0.701800 12.058600 16.044701 0.000000 0.000000 0.000000 0.000000 0.000000 0.000000 18.427601 16.655300 -32.003502 -4.147900 -12.354600 36.998402 -1.262600 -5.202900 -23.684700 -1.263000 7.123700 -20.082300 -3.031600 -3.957000 6.572900 1.151900 -5.446700 0.813200 3.331100 -2.682200 -2.437600 -1.885300 3.301400 -17.172300 -2.047700 4.739700 -3.442800 -0.016600 2.299300 1.820000 -0.000000 0.000000 0.000000 -72.681000 0.020400 64.378998 120.923302 -56.058800 -86.426003 -0.000000 0.000000 -31.663900 31.031000 0.375700 0.226000 -7.125000 0.000000 -0.000000 3.534600 30.408100 -1.261500 -0.000000 0.000000 0.000000 82.135399 -35.811901 38.646702 -77.296303 59.381302 -49.021099 0.000000 -0.000000 -11.880600 -46.711601 34.917900 -31.285500 7.125000 -0.000000 -0.000000 -7.116800 15.230400 -8.794100 
9.216200 16.950399 -31.922701 3.313000 2.269400 7.612900 0.000000 0.000000 0.000000 -25.912001 -0.358900 5.808400 6.814300 15.173500 48.168499 0.411100 13.496100 13.905900 1.379200 -7.431500 -21.000200 0.000000 0.000000 0.000000 18.114201 16.123600 -31.458300 -4.134600 -12.337400 36.936199 -1.177100 -5.582400 -23.215500 -1.396100 7.475000 -21.130400 -3.577900 -3.769000 6.827600 0.978500 -5.249000 0.820600 3.461100 -2.575900 -2.554300 -2.336800 3.230500 -16.705299 -1.824100 4.700000 -3.955300 0.112100 2.303100 1.547000 0.000000 -0.000000 0.000000 -73.174698 1.858700 64.802902 119.553200 -56.427799 -85.286903 -0.000000 0.000000 -30.964399 31.010700 0.244900 0.147200 -7.125000 0.000000 -0.000000 3.513300 30.255800 -1.266700 0.000000 -0.000000 0.000000 82.392799 -34.109600 38.548901 -78.374702 59.483101 -49.949699 0.000000 -0.000000 -11.697200 -46.945801 34.451900 -31.195101 7.125000 -0.000000 -0.000000 -7.388300 14.835800 -9.098500 
9.215400 16.883801 -31.609400 3.412200 1.816800 7.291400 0.000000 0.000000 0.000000 -25.976500 -0.340200 3.985800 8.162100 16.237200 53.144402 0.311000 13.326100 12.838500 0.924600 -6.126100 -17.150700 0.000000 0.000000 0.000000 18.563101 15.635200 -30.541000 -4.186100 -12.404000 37.176399 -1.103400 -5.690400 -22.664400 -1.765800 8.360200 -23.813499 -3.637800 -3.531100 7.110800 0.952700 -4.943900 1.020900 3.457100 -2.426900 -2.527300 -2.036400 3.126900 -16.816099 -2.398800 4.515400 -4.173900 -0.133900 2.192500 1.515400 -0.000000 0.000000 0.000000 -73.526001 3.355700 64.966797 118.083504 -56.799400 -84.059700 -0.000000 0.000000 -30.636900 31.707001 0.683100 0.422000 -7.125000 0.000000 -0.000000 4.082900 30.768400 -1.422700 -0.000000 0.000000 0.000000 82.674400 -31.924299 38.442101 -79.284302 59.561600 -50.733601 0.000000 -0.000000 -11.300000 -46.970402 34.097099 -30.986700 7.125000 -0.000000 -0.000000 -7.515900 14.458500 -9.222600 
